<svg xmlns="http://www.w3.org/2000/svg" enable-background="new 0 0 1500 1500" viewBox="0 0 1500 1500" id="online-shopping-site"><path fill="none" stroke="#ffc000" stroke-miterlimit="10" stroke-width="3.501" d="M464.6 306.4c0 0-77.3-99.7-128.9-83.6s-16.2 91.9 120.6 86.6M477 306.4c0 0 77.3-99.7 128.9-83.6s16.2 91.9-120.6 86.6"></path><line x1="404.6" x2="467.3" y1="203.3" y2="305.5" fill="none" stroke="#ffc000" stroke-miterlimit="10" stroke-width="3.501"></line><line x1="537" x2="474.4" y1="203.3" y2="305.5" fill="none" stroke="#ffc000" stroke-miterlimit="10" stroke-width="3.501"></line><rect width="478.9" height="334.3" x="231.4" y="301.5" fill="#ffc000"></rect><rect width="503.7" height="97.3" x="219" y="301.5" fill="#ffc000"></rect><rect width="69.9" height="334.3" x="435.9" y="301.5" fill="#fff"></rect><polygon points="710.3 460.1 231.4 418 231.4 398.8 710.3 398.8" enable-background="new" opacity=".26"></polygon><path fill="none" stroke="#ff4b85" stroke-miterlimit="10" stroke-width="2.626" d="M1261.5 694.9c0 0-71-91.7-118.6-76.8-47.5 14.9-14.9 84.5 110.9 79.7M1272.9 694.9c0 0 71-91.7 118.6-76.8 47.5 14.9 14.9 84.5-110.9 79.7"></path><line x1="1206.3" x2="1263.9" y1="600.2" y2="694.1" fill="none" stroke="#ff4b85" stroke-miterlimit="10" stroke-width="2.626"></line><line x1="1328.1" x2="1270.4" y1="600.2" y2="694.1" fill="none" stroke="#ff4b85" stroke-miterlimit="10" stroke-width="2.626"></line><rect width="383.9" height="580.2" x="1075.2" y="686.4" fill="#ff4b85"></rect><rect width="428.6" height="103.2" x="1052.9" y="686.4" fill="#ff4b85"></rect><rect width="63.3" height="580.2" x="1235.5" y="686.4" fill="#fff"></rect><polygon points="1075.2 789.6 1459.2 789.6 1459.2 879.4 1075.2 815.8" enable-background="new" opacity=".2"></polygon><polygon fill="#006ad3" points="713.9 1269.8 544.8 1269.8 679 961 848 961"></polygon><path fill="#006ad3" d="M1091.9,1078.2H388.7c-36.1,0-65.4-29.3-65.4-65.4V582.4c0-36.1,29.3-65.4,65.4-65.4h703.2
		c36.1,0,65.4,29.3,65.4,65.4v430.4C1157.3,1048.9,1128,1078.2,1091.9,1078.2z"></path><path fill="#c2dbff" d="M1115.1,1078.2H411.9c-36.1,0-65.4-29.3-65.4-65.4V582.4c0-36.1,29.3-65.4,65.4-65.4h703.2
		c36.1,0,65.4,29.3,65.4,65.4v430.4C1180.5,1048.9,1151.2,1078.2,1115.1,1078.2z"></path><path fill="#fff" d="M1165.5,571.9v448.9c0,23.5-19,42.5-42.5,42.5H400.9c-23.5,0-42.5-19-42.5-42.5V571.9
		c0-23.5,19-42.5,42.5-42.5h722.1C1146.5,529.3,1165.5,548.4,1165.5,571.9z"></path><path fill="#006ad3" d="M816.5,1238.3H567.4v31.5H848l0,0C848,1252.4,833.9,1238.3,816.5,1238.3z"></path><circle cx="718.3" cy="677.8" r="58.7" fill="#ffc000"></circle><rect width="89.6" height="89.6" x="752.6" y="717.6" fill="#ff4b85" transform="rotate(-17.812 797.391 762.389)"></rect><path fill="#999" d="M696.4,864.4c4.5,0,8.2,3.6,8.2,8.2c0,4.5-3.6,8.2-8.2,8.2c-4.5,0-8.2-3.6-8.2-8.2
					C688.2,868,691.8,864.4,696.4,864.4 M696.4,857.7c-8.2,0-14.8,6.7-14.8,14.8s6.7,14.8,14.8,14.8s14.8-6.7,14.8-14.8
					S704.6,857.7,696.4,857.7L696.4,857.7z"></path><path fill="#2e3744" d="M712.5,851.1l-12.7,23.2c-1.8,3.3-6.9,2-6.9-1.8v-21.5H712.5z"></path><path fill="#999" d="M830.8,864.4c4.5,0,8.2,3.6,8.2,8.2c0,4.5-3.6,8.2-8.2,8.2c-4.5,0-8.2-3.6-8.2-8.2
					C822.6,868,826.3,864.4,830.8,864.4 M830.8,857.7c-8.2,0-14.8,6.7-14.8,14.8s6.7,14.8,14.8,14.8c8.2,0,14.8-6.7,14.8-14.8
					S839,857.7,830.8,857.7L830.8,857.7z"></path><path fill="#2e3744" d="M846.9 851.1l-12.7 23.2c-1.8 3.3-6.9 2-6.9-1.8v-21.5H846.9zM852.5 828.7H688.2c-1.6 0-2.9-1.1-3.3-2.6l-33.5-150.5c-.2-1 0-2 .7-2.8.6-.8 1.6-1.3 2.6-1.3h231.4c1 0 2 .5 2.6 1.3s.9 1.8.7 2.8l-33.5 150.5C855.4 827.6 854.1 828.7 852.5 828.7zM690.9 822h159l32.1-143.8H658.8L690.9 822z"></path><path fill="#2e3744" d="M654.9 679.1c-1.5 0-2.9-1.1-3.3-2.6l-7.2-32.6c-2.8-12.5-13.6-21.2-26.4-21.2h-39.8c-1.9 0-3.4-1.5-3.4-3.4s1.5-3.4 3.4-3.4h39.8c15.9 0 29.5 10.9 32.9 26.4l7.2 32.6c.4 1.8-.7 3.6-2.6 4C655.4 679.1 655.1 679.1 654.9 679.1zM860.4 854.5H686c-9 0-16.2-7.3-16.2-16.2 0-9 7.3-16.2 16.2-16.2h166.5c1.9 0 3.4 1.5 3.4 3.4 0 1.9-1.5 3.4-3.4 3.4H686c-5.3 0-9.5 4.3-9.5 9.5s4.3 9.5 9.5 9.5h174.3c1.9 0 3.4 1.5 3.4 3.4C863.7 853 862.2 854.5 860.4 854.5z"></path><path fill="#2e3744" d="M687.5 826.2c-.5 0-.8-.4-.8-.8V674.8c0-.5.4-.8.8-.8.5 0 .8.4.8.8v150.5C688.3 825.8 688 826.2 687.5 826.2zM729 826.2c-.5 0-.8-.4-.8-.8V674.8c0-.5.4-.8.8-.8.5 0 .8.4.8.8v150.5C729.8 825.8 729.4 826.2 729 826.2zM770.4 826.2c-.5 0-.8-.4-.8-.8V674.8c0-.5.4-.8.8-.8.5 0 .8.4.8.8v150.5C771.2 825.8 770.9 826.2 770.4 826.2zM811.9 826.2c-.5 0-.8-.4-.8-.8V674.8c0-.5.4-.8.8-.8s.8.4.8.8v150.5C812.7 825.8 812.3 826.2 811.9 826.2zM853.4 826.2c-.5 0-.8-.4-.8-.8V674.8c0-.5.4-.8.8-.8s.8.4.8.8v150.5C854.2 825.8 853.8 826.2 853.4 826.2z"></path><path fill="#2e3744" d="M880.4 700.6h-220c-.5 0-.8-.4-.8-.8 0-.5.4-.8.8-.8h220c.5 0 .8.4.8.8C881.2 700.2 880.9 700.6 880.4 700.6zM872.7 742.1H668.2c-.5 0-.8-.4-.8-.8 0-.5.4-.8.8-.8h204.5c.5 0 .8.4.8.8C873.5 741.7 873.2 742.1 872.7 742.1zM864.1 783.5H676.8c-.5 0-.8-.4-.8-.8 0-.5.4-.8.8-.8h187.3c.5 0 .8.4.8.8C864.9 783.2 864.5 783.5 864.1 783.5z"></path><g><path fill="#006ad3" d="M850.2,1004.2H683.4c-21.1,0-38.3-17.2-38.3-38.3l0,0c0-21.1,17.2-38.3,38.3-38.3h166.8
		c21.1,0,38.3,17.2,38.3,38.3l0,0C888.5,987.1,871.3,1004.2,850.2,1004.2z"></path><text fill="#fff" font-family="Montserrat-Bold" font-size="66.282" transform="translate(692.73 990.234)">BUY</text></g><g><polygon fill="#ff4b85" points="436 1275.3 300.2 1272.6 49.4 1267.8 51 1255.2 106.9 824.2 200.6 826.2 247.3 827.3 357.7 829.6 360.9 829.7 394.2 1027.4 405.7 1095.8 405.7 1095.8 409.1 1116 412.3 1135 420.1 1181.3 424.2 1205.6 433.8 1262.4"></polygon><polygon fill="#ffd7e5" points="247.3 827.3 237.5 897.8 190.6 897.8 200.6 826.2"></polygon><polygon fill="#ff1f70" points="357.8 829 300.2 1272.6 436 1275.3 360.9 829.7"></polygon></g><circle cx="939.2" cy="1187.3" r="31.2" fill="none" stroke="#ff478b" stroke-miterlimit="10" stroke-width="3.501"></circle><circle cx="1381.1" cy="468.6" r="12.6" fill="#ff4b85"></circle><circle cx="46.5" cy="679.6" r="40.3" fill="#ffc000"></circle><path fill="#ffc000" d="M1026.3,288.3c-31.3,7.7-37.5,13.9-45.2,45.2c-7.7-31.3-13.9-37.5-45.2-45.2c31.3-7.7,37.5-13.9,45.2-45.2
	C988.8,274.4,995,280.6,1026.3,288.3z"></path></svg>